<svg width="27" height="27" viewBox="0 0 27 27" fill="none" xmlns="http://www.w3.org/2000/svg">
<rect width="27" height="27" rx="4" fill="#C46A2B"/>
<path d="M9.90625 22.125C10.7002 22.125 11.3438 21.4814 11.3438 20.6875C11.3438 19.8936 10.7002 19.25 9.90625 19.25C9.11234 19.25 8.46875 19.8936 8.46875 20.6875C8.46875 21.4814 9.11234 22.125 9.90625 22.125Z" fill="white"/>
<path d="M19.9688 22.125C20.7627 22.125 21.4062 21.4814 21.4062 20.6875C21.4062 19.8936 20.7627 19.25 19.9688 19.25C19.1748 19.25 18.5312 19.8936 18.5312 20.6875C18.5312 21.4814 19.1748 22.125 19.9688 22.125Z" fill="white"/>
<path d="M22.5203 7.42566C22.4193 7.30215 22.2921 7.20267 22.1479 7.13445C22.0037 7.06623 21.8461 7.03098 21.6866 7.03125H8.01459L7.73922 5.46887C7.70986 5.30244 7.62279 5.15169 7.49332 5.04308C7.36385 4.93448 7.20024 4.87496 7.03125 4.875H4.15625C3.96563 4.875 3.78281 4.95073 3.64802 5.08552C3.51323 5.22031 3.4375 5.40313 3.4375 5.59375C3.4375 5.78437 3.51323 5.96719 3.64802 6.10198C3.78281 6.23677 3.96563 6.3125 4.15625 6.3125H6.4284L8.47953 17.9374C8.50889 18.1038 8.59596 18.2546 8.72543 18.3632C8.85491 18.4718 9.01851 18.5313 9.1875 18.5312H20.6875C20.8781 18.5312 21.0609 18.4555 21.1957 18.3207C21.3305 18.1859 21.4063 18.0031 21.4063 17.8125C21.4063 17.6219 21.3305 17.4391 21.1957 17.3043C21.0609 17.1695 20.8781 17.0938 20.6875 17.0938H9.79035L9.53699 15.6562H20.3928C20.6421 15.6559 20.8836 15.5695 21.0764 15.4116C21.2693 15.2537 21.4017 15.034 21.4512 14.7897L22.7449 8.32096C22.7761 8.16441 22.7721 8.00288 22.7333 7.84806C22.6944 7.69323 22.6217 7.54896 22.5203 7.42566Z" fill="white"/>
</svg>
